# File created by Blade
# Date/Time:  Wed Jan 21 17:21:41 2015
#---------------------------------------------------------
:version 1.10
:name HOM
:units
  mass 1.0
  length 1.000000
  angle deg
:documentation
     Acclaim Skeleton File
:root
   axis xyz
   order TX TY TZ RX RY RZ
   position 0.000000 0.000000 0.000000
   orientation 0 0 0
:bonedata
   begin
      id 1
      name Spine_dum
      direction 0.000000 1.000000 0.000000
      length 7.067664
      axis 0.0 0.0 0.0 xyz
   end
   begin
      id 2
      name LeftUpLeg_dum
      direction 1.000000 0.000000 0.000000
      length 4.013002
      axis 0.0 0.0 0.0 xyz
   end
   begin
      id 3
      name RightUpLeg_dum
      direction -1.000000 0.000000 0.000000
      length 4.013002
      axis 0.0 0.0 0.0 xyz
   end
   begin
      id 4
      name Spine
      direction 0.000000 1.000000 0.000000
      length 0.000000
      axis 0.0 0.0 0.0 xyz
      dof rx ry rz
   end
   begin
      id 5
      name Spine_dum1
      direction 0.000000 1.000000 0.000000
      length 15.039886
      axis 0.0 0.0 0.0 xyz
   end
   begin
      id 6
      name Spine_dum2
      direction 0.000000 1.000000 0.000000
      length 10.530368
      axis 0.0 0.0 0.0 xyz
   end
   begin
      id 7
      name Spine_dum3
      direction 0.000000 1.000000 0.000000
      length 10.530368
      axis 0.0 0.0 0.0 xyz
   end
   begin
      id 8
      name Head
      direction 0.000000 1.000000 0.000000
      length 4.527550
      axis 0.0 0.0 0.0 xyz
      dof rx ry rz
   end
   begin
      id 9
      name LeftShoulder
      direction 1.000000 0.000000 0.000000
      length 7.028855
      axis 0.0 0.0 -90.0 xyz
      dof rx ry rz
   end
   begin
      id 10
      name LeftArm
      direction 1.000000 0.000000 0.000000
      length 10.797705
      axis 0.0 0.0 -90.0 xyz
      dof rx ry rz
   end
   begin
      id 11
      name LeftForeArm
      direction 1.000000 0.000000 0.000000
      length 7.907442
      axis 0.0 0.0 -90.0 xyz
      dof ry rz rx
   end
   begin
      id 12
      name LeftHand
      direction 0.000000 0.000000 0.000000
      length 0.000000
      axis 0.0 0.0 -90.0 xyz
      dof rx ry rz
   end
   begin
      id 13
      name LeftHand_dum1
      direction 0.000000 0.000000 0.000000
      length 0.000000
      axis 0.0 0.0 -90.0 xyz
   end
   begin
      id 14
      name LeftHand_dum2
      direction 1.000000 0.000000 0.000000
      length 3.937000
      axis 0.0 0.0 -90.0 xyz
   end
   begin
      id 15
      name LeftHandThumb1
      direction 0.000000 0.000000 1.000000
      length 3.937000
      axis 0.0 0.0 -90.0 xyz
      dof rx rz ry
   end
   begin
      id 16
      name RightShoulder
      direction -1.000000 0.000000 0.000000
      length 7.028855
      axis 0.0 0.0 90.0 xyz
      dof rx ry rz
   end
   begin
      id 17
      name RightArm
      direction -1.000000 0.000000 0.000000
      length 10.797705
      axis 0.0 0.0 90.0 xyz
      dof rx ry rz
   end
   begin
      id 18
      name RightForeArm
      direction -1.000000 0.000000 0.000000
      length 7.907442
      axis 0.0 0.0 90.0 xyz
      dof ry rz rx
   end
   begin
      id 19
      name RightHand
      direction 0.000000 0.000000 0.000000
      length 0.000000
      axis 0.0 0.0 90.0 xyz
      dof rx ry rz
   end
   begin
      id 20
      name RightHand_dum1
      direction 0.000000 0.000000 0.000000
      length 0.000000
      axis 0.0 0.0 90.0 xyz
   end
   begin
      id 21
      name RightHand_dum2
      direction -1.000000 0.000000 0.000000
      length 3.937000
      axis 0.0 0.0 90.0 xyz
   end
   begin
      id 22
      name RightHandThumb1
      direction 0.000000 0.000000 1.000000
      length 3.937000
      axis 0.0 0.0 90.0 xyz
      dof rx rz ry
   end
   begin
      id 23
      name LeftUpLeg
      direction 0.000000 -1.000000 0.000000
      length 16.899758
      axis 0.0 0.0 0.0 xyz
      dof rx ry rz
   end
   begin
      id 24
      name LeftLeg
      direction 0.000000 -1.000000 0.000000
      length 17.389183
      axis 0.0 0.0 0.0 xyz
      dof rx ry rz
   end
   begin
      id 25
      name LeftFoot
      direction 0.000000 -0.258819 0.965926
      length 4.924528
      axis 15.0 0.0 0.0 xyz
      dof rx ry rz
   end
   begin
      id 26
      name LeftToeBase
      direction 0.000000 0.000000 1.000000
      length 2.952750
      axis 0.0 0.0 0.0 xyz
      dof rx ry rz
   end
   begin
      id 27
      name RightUpLeg
      direction 0.000000 -1.000000 0.000000
      length 16.899758
      axis 0.0 0.0 0.0 xyz
      dof rx ry rz
   end
   begin
      id 28
      name RightLeg
      direction 0.000000 -1.000000 0.000000
      length 17.389183
      axis 0.0 0.0 0.0 xyz
      dof rx ry rz
   end
   begin
      id 29
      name RightFoot
      direction 0.000000 -0.258819 0.965926
      length 4.924528
      axis 15.0 0.0 0.0 xyz
      dof rx ry rz
   end
   begin
      id 30
      name RightToeBase
      direction 0.000000 0.000000 1.000000
      length 2.952750
      axis 0.0 0.0 0.0 xyz
      dof rx ry rz
   end
:hierarchy
   begin
      root Spine_dum LeftUpLeg_dum RightUpLeg_dum
      Spine_dum Spine
      LeftUpLeg_dum LeftUpLeg
      RightUpLeg_dum RightUpLeg
      Spine Spine_dum1 Spine_dum2 Spine_dum3
      Spine_dum1 Head
      Spine_dum2 LeftShoulder
      Spine_dum3 RightShoulder
      LeftShoulder LeftArm
      LeftArm LeftForeArm
      LeftForeArm LeftHand
      LeftHand LeftHand_dum1 LeftHand_dum2
      LeftHand_dum1 LeftHandThumb1
      RightShoulder RightArm
      RightArm RightForeArm
      RightForeArm RightHand
      RightHand RightHand_dum1 RightHand_dum2
      RightHand_dum1 RightHandThumb1
      LeftUpLeg LeftLeg
      LeftLeg LeftFoot
      LeftFoot LeftToeBase
      RightUpLeg RightLeg
      RightLeg RightFoot
      RightFoot RightToeBase
   end

# File created by Blade
# Date/Time:  Wed Jan 21 17:21:31 2015
# Frame Rate: 120.000 fps
#------------------------------------------------------
:FULLY-SPECIFIED
:DEGREES
49
root 19.716998 35.270512 -23.325189 -174.507759 -1.308082 -179.562938
Spine -14.847626 0.363806 -0.715874
Head 6.834147 -2.390399 0.928518
LeftShoulder -14.345921 -32.954307 22.681957
LeftArm 1.144581 1.077871 -5.799225
LeftForeArm 12.576894 0.000000 -3.660867
LeftHand -11.451933 0.000000 -2.780650
LeftHandThumb1 -26.253704 0.000000 33.147579
RightShoulder -12.579422 -2.381350 -12.272157
RightArm 2.709148 36.561424 8.379212
RightForeArm -38.670230 -0.000000 3.745991
RightHand -8.645848 -0.000000 9.430294
RightHandThumb1 -24.326973 -0.000000 -32.862282
LeftUpLeg 4.796062 10.797910 4.395768
LeftLeg -6.397496 -0.000000 0.000000
LeftFoot -19.319617 24.538274 -13.521858
LeftToeBase 25.011809 -0.000000 -0.000000
RightUpLeg 3.772182 -13.368089 -4.566860
RightLeg -4.422224 -0.000000 0.000000
RightFoot -19.668626 -19.934176 17.887960
RightToeBase 25.736097 -0.000000 -0.000000
50
root 19.716734 35.272307 -23.318674 -174.520823 -1.297184 -179.559336
Spine -14.794514 0.376732 -0.733742
Head 6.883353 -2.428925 0.940268
LeftShoulder -14.348434 -32.962557 22.670978
LeftArm 1.206986 1.197769 -5.795647
LeftForeArm 12.619925 -0.000000 -3.685943
LeftHand -11.403330 -0.000000 -2.766071
LeftHandThumb1 -26.253704 0.000000 33.147579
RightShoulder -12.580129 -2.366713 -12.247636
RightArm 2.740774 36.525408 8.391605
RightForeArm -38.729031 0.000000 3.730155
RightHand -8.660242 -0.000000 9.428666
RightHandThumb1 -24.326973 -0.000000 -32.862282
LeftUpLeg 4.788697 10.792810 4.399282
LeftLeg -6.373694 -0.000000 0.000000
LeftFoot -19.318635 24.544852 -13.519507
LeftToeBase 24.986638 -0.000000 -0.000000
RightUpLeg 3.756212 -13.305597 -4.564829
RightLeg -4.392401 -0.000000 0.000000
RightFoot -19.670905 -19.954717 17.877196
RightToeBase 25.778206 -0.000000 -0.000000
51
root 19.715440 35.274123 -23.310251 -174.539579 -1.287094 -179.556361
Spine -14.725841 0.389771 -0.749333
Head 6.937001 -2.476133 0.942723
LeftShoulder -14.344568 -32.956505 22.639580
LeftArm 1.271688 1.273341 -5.790476
LeftForeArm 12.735334 -0.000000 -3.672952
LeftHand -11.426831 0.000000 -2.743221
LeftHandThumb1 -26.253704 0.000000 33.147579
RightShoulder -12.570512 -2.341812 -12.219479
RightArm 2.767928 36.487365 8.386069
RightForeArm -38.771223 -0.000000 3.697901
RightHand -8.615125 -0.000000 9.427219
RightHandThumb1 -24.326973 -0.000000 -32.862282
LeftUpLeg 4.780710 10.778664 4.398929
LeftLeg -6.345509 -0.000000 0.000000
LeftFoot -19.333581 24.560540 -13.536133
LeftToeBase 24.982462 -0.000000 -0.000000
RightUpLeg 3.737796 -13.250922 -4.562454
RightLeg -4.348430 -0.000000 0.000000
RightFoot -19.680133 -20.015432 17.902514
RightToeBase 25.664347 -0.000000 -0.000000
52
root 19.715052 35.275591 -23.298190 -174.522980 -1.239213 -179.570544
Spine -14.690521 0.438550 -0.810491
Head 6.980583 -2.544049 0.978810
LeftShoulder -14.340706 -32.973378 22.662777
LeftArm 1.342591 1.457537 -5.819203
LeftForeArm 12.770588 -0.000000 -3.691038
LeftHand -11.530512 -0.000000 -2.716580
LeftHandThumb1 -26.253704 0.000000 33.147579
RightShoulder -12.567320 -2.311784 -12.195485
RightArm 2.801046 36.465481 8.438192
RightForeArm -38.883291 -0.000000 3.735629
RightHand -8.686149 -0.000000 9.431822
RightHandThumb1 -24.326973 -0.000000 -32.862282
LeftUpLeg 4.737530 10.799427 4.372804
LeftLeg -6.314422 -0.000000 0.000000
LeftFoot -19.331341 24.584870 -13.530981
LeftToeBase 25.042912 -0.000000 -0.000000
RightUpLeg 3.661917 -13.172066 -4.571841
RightLeg -4.300089 -0.000000 0.000000
RightFoot -19.692333 -20.048899 17.850539
RightToeBase 25.682507 -0.000000 -0.000000
53
root 19.714122 35.278049 -23.288402 -174.536505 -1.220701 -179.572166
Spine -14.626601 0.453590 -0.842181
Head 7.066495 -2.548725 0.994731
LeftShoulder -14.341372 -32.972825 22.648291
LeftArm 1.437392 1.552261 -5.835015
LeftForeArm 12.931269 -0.000000 -3.705573
LeftHand -11.528441 -0.000000 -2.654119
LeftHandThumb1 -26.253704 0.000000 33.147579
RightShoulder -12.571366 -2.280943 -12.167386
RightArm 2.911198 36.587701 8.513264
RightForeArm -39.078284 -0.000000 3.735517
RightHand -8.890826 -0.000000 9.428872
RightHandThumb1 -24.326973 -0.000000 -32.862282
LeftUpLeg 4.723022 10.798808 4.364235
LeftLeg -6.289568 -0.000000 0.000000
LeftFoot -19.325879 24.614088 -13.542700
LeftToeBase 24.961557 -0.000000 -0.000000
RightUpLeg 3.636279 -13.089184 -4.575721
RightLeg -4.257003 -0.000000 0.000000
RightFoot -19.710915 -20.131779 17.793543
RightToeBase 25.826267 -0.000000 -0.000000
